<?xml version="1.0" encoding="UTF-8"?>
<svg enable-background="new 0 0 1024 1024" version="1.1" viewBox="176.05 112.06 742 800.84" xml:space="preserve"
     xmlns="http://www.w3.org/2000/svg">
<path stroke="black"
      stroke-width="25"
      d="m256 124.66c111.33 1.29e-4 222.15 0.036949 332.98-0.062775 9.7502-0.008774 17.753 3.1553 24.618 10.033 52.386 52.482 104.81 104.93 157.31 157.3 7.2841 7.2649 10.719 15.613 10.515 25.938-0.328 16.659-0.03424 33.33-0.12152 49.995-0.036254 6.9308-4.2908 12.079-10.579 13.268-5.8163 1.0997-11.728-2.2123-14.226-7.7838-0.86536-1.9298-0.83398-3.8803-0.83649-5.8682-0.014221-11.333-0.2218-22.671 0.090637-33.995 0.13141-4.7643-1.256-6.2595-6.1331-6.2381-39.997 0.1749-79.995 0.10526-119.99 0.077423-24.522-0.01709-46.951-22.541-46.963-47.157-0.020202-40.831-0.003662-81.661-0.010681-122.49-0.00116-6.8429-0.35754-7.2571-7.4112-7.2585-110.16-0.021896-220.32-0.044159-330.48 4.27e-4 -16.558 0.006714-29.82 13.664-30.397 30.926-0.033371 0.99892-0.013229 1.9997-0.013229 2.9996 0 219.82-0.001175 439.64 0.004669 659.46 3.66e-4 14.172 8.045 25.492 20.545 29.211 2.7821 0.82782 5.58 0.89972 8.4025 0.8999 159.32 0.009155 318.65-0.013123 477.97 0.037964 10.541 0.003418 19.642-2.9254 26.808-10.965 5.0966-5.7182 7.6199-12.268 7.6117-20.005-0.068604-64.829-0.044129-129.66-0.030884-194.49 0.002014-9.5916 4.8152-14.262 14.113-13.818 6.0512 0.28906 10.704 5.0154 11.48 11.764 0.17047 1.4824 0.087829 2.9962 0.087829 4.4955-7.93e-4 63.663-0.3659 127.33 0.15314 190.99 0.23529 28.86-19.647 51.429-46.124 57.298-3.5834 0.79419-7.1961 1.176-10.889 1.1752-160.82-0.033997-321.65-0.017151-482.47-0.049134-25.444-0.005005-48.409-20.159-52.494-45.596-0.58678-3.6545-0.80028-7.2569-0.80045-10.913-0.009582-220.15 0.10759-440.31-0.16878-660.46-0.03801-30.28 20.822-52.933 47.02-58.136 6.5926-1.3091 13.291-0.28865 20.434-0.5768m452.72 142.13c-33.027-33.018-66.054-66.035-99.865-99.837-0.3147 2.2223-0.4812 2.8503-0.48151 3.4785-0.016114 36.332-0.11023 72.665 0.032409 109 0.044434 11.309 10.345 21.192 21.68 21.209 35.332 0.054047 70.665 0.024994 106-0.015167 1.5684-0.001801 3.3203 0.6037 5.5414-1.5283-10.845-10.642-21.626-21.221-32.905-32.304z"/>
    <path stroke="black"
          stroke-width="25"
          d="m808.84 374.61c16.158-7.3955 31.943-4.6715 44.367 7.608 13.271 13.117 26.557 26.223 39.622 39.543 16.969 17.3 17.01 38.911-0.15283 56.282-28.577 28.923-57.411 57.592-86.151 86.354-55.36 55.403-110.76 110.76-166.04 166.25-5.2004 5.2202-11.133 8.7844-17.878 11.478-38.78 15.487-77.277 31.68-116.29 46.594-1.5484 0.59204-3.1246 1.3004-4.7419 1.488-5.0966 0.59119-10.07 0.49731-13.541-4.2399-3.4198-4.6683-3.1544-9.7324-1.1276-14.704 6.6603-16.338 13.495-32.604 20.261-48.899 9.5099-22.903 19.134-45.76 28.458-68.738 2.9006-7.1483 7.4727-12.833 12.768-18.249 52.53-53.737 105.95-106.59 158.81-159.99 29.767-30.074 58.73-60.942 88.813-90.713 3.808-3.7687 7.6908-7.383 12.814-10.058m-73.974 109.75c-55.208 55.685-110.42 111.37-165.53 166.95 19.205 19.16 37.893 37.805 55.553 55.423 66.421-65.326 133.01-130.82 199.6-196.31-1.1381-2.2704-2.0675-3.0336-2.8792-3.8521-17.129-17.274-34.315-34.493-51.35-51.859-2.633-2.6841-4.2062-2.0192-6.462 0.30274-9.4045 9.6804-18.944 19.23-28.932 29.338m84.919-85.184c-11.957 10.544-22.794 22.203-34.395 33.779 19.01 19.755 38.128 38.593 57.411 57.429 1.5186-1.2079 2.6406-1.9346 3.5632-2.8599 9.397-9.4245 18.863-18.783 28.102-28.361 6.8968-7.1503 7.1193-12.402 0.2522-19.473-12.98-13.365-26.247-26.456-39.565-39.486-4.9766-4.8692-8.7549-4.9943-15.368-1.0275m-295.43 350.3c-0.45044 1.3566-0.90094 2.7132-1.561 4.701 26.325-10.653 52.067-21.07 78.658-31.83-16.045-15.792-30.559-31.244-46.757-46.135-10.266 24.738-20.195 48.663-30.34 73.264z"/>
    <path stroke="black"
          stroke-width="25"
          d="m644 413.96c-110.62 0.004333-220.74 0.015594-330.87-0.010254-4.1543-9.77e-4 -8.3442-0.086518-12.455-0.6171-7.0891-0.91501-11.419-6.7128-11.006-14.192 0.34366-6.2288 5.549-11.104 12.281-11.48 0.99676-0.055634 1.9987-0.022003 2.9983-0.021973 116.95 0.002259 233.91 0.003571 350.86 0.021546 2.1573 3.35e-4 4.3799-0.096222 6.4598 0.36191 6.3027 1.3882 10.187 6.569 10.068 13.03-0.11365 6.1458-4.1073 10.877-10.405 12.254-5.7682 1.2607-11.623 0.43948-17.934 0.65454z"/>
    <path stroke="black"
          stroke-width="25"
          d="m420 518.34c-38.483-0.006225-76.466 0.013916-114.45-0.038086-9.7486-0.013367-16.016-5.6721-15.892-14.066 0.092712-6.2943 5.0631-11.79 11.359-12.525 0.82349-0.09613 1.6641-0.061523 2.4967-0.061493 82.963 0.001771 165.93-0.003356 248.89 0.023407 9.2365 0.002991 14.5 5.724 13.928 14.901-0.41321 6.6276-6.3293 11.57-14.39 11.709-8.4938 0.14624-16.992 0.049744-25.488 0.050659-35.317 0.003785-70.635 0.004212-106.45 0.00647z"/>
    <path stroke="black"
          stroke-width="25"
          d="m374 595.64c33.638 0.006165 66.777-0.011108 99.915 0.033875 9.5121 0.012939 15.052 5.6639 14.408 14.467-0.4444 6.0751-5.0238 10.553-12.268 11.804-1.7871 0.30866-3.6481 0.25732-5.4751 0.25751-53.787 0.004638-107.57-0.007691-161.36-0.005799-3.0006 1.22e-4 -5.9663-0.081115-8.916-0.81055-7.1876-1.7775-11.417-7.5465-10.613-14.669 0.68643-6.0821 6.5391-11.036 13.371-11.052 23.48-0.052612 46.96-0.022949 70.94-0.02478z"/>
</svg>
